<svg xmlns="http://www.w3.org/2000/svg" xmlns:xlink="http://www.w3.org/1999/xlink" version="1.1" data-diagram-type="SEQUENCE" style="width:1355px;height:1174px;background:#FFFFFF;" width="1355px" height="1174px" viewBox="0 0 1355 1174" zoomAndPan="magnify" preserveAspectRatio="none" contentStyleType="text/css"><?plantuml 1.2026.8?><defs/><g font-family="sans-serif" lengthAdjust="spacing"><g class="title" data-source-line="3"><text x="513.173" y="29.533" fill="#000" font-size="14" textLength="327.462" font-weight="700">Une image du jeu (Game Loop et Update Method)</text></g><rect x="592.528" y="353.641" width="230.175" height="58.703" fill="none" style="stroke:#000;stroke-width:1.5;"/><rect x="592.528" y="430.344" width="285.037" height="58.703" fill="none" style="stroke:#000;stroke-width:1.5;"/><rect x="592.528" y="507.047" width="563.32" height="132.406" fill="none" style="stroke:#000;stroke-width:1.5;"/><rect x="175.371" y="864.563" width="1159.375" height="58.703" fill="none" style="stroke:#000;stroke-width:1.5;"/><rect x="175.371" y="941.266" width="237.265" height="88.055" fill="none" style="stroke:#000;stroke-width:1.5;"/><g><title>Timer</title><rect x="63.491" y="98.828" width="8" height="1014.195" fill="#000" fill-opacity="0"/><line x1="66.991" y1="98.828" x2="66.991" y2="1113.023" style="stroke:#181818;stroke-width:0.5;stroke-dasharray:5,5;"/></g><g><title>GamePanel</title><rect x="187.871" y="98.828" width="8" height="1014.195" fill="#000" fill-opacity="0"/><line x1="191.371" y1="98.828" x2="191.371" y2="1113.023" style="stroke:#181818;stroke-width:0.5;stroke-dasharray:5,5;"/></g><g><title></title><rect x="186.371" y="129.18" width="10" height="952.844" fill="#FFF" style="stroke:#181818;stroke-width:1;"/></g><g><title>Controls</title><rect x="451.201" y="98.828" width="8" height="1014.195" fill="#000" fill-opacity="0"/><line x1="454.701" y1="98.828" x2="454.701" y2="1113.023" style="stroke:#181818;stroke-width:0.5;stroke-dasharray:5,5;"/></g><g><title>Gamepad</title><rect x="532.008" y="98.828" width="8" height="1014.195" fill="#000" fill-opacity="0"/><line x1="535.508" y1="98.828" x2="535.508" y2="1113.023" style="stroke:#181818;stroke-width:0.5;stroke-dasharray:5,5;"/></g><g><title>World</title><rect x="605.028" y="98.828" width="8" height="1014.195" fill="#000" fill-opacity="0"/><line x1="608.528" y1="98.828" x2="608.528" y2="1113.023" style="stroke:#181818;stroke-width:0.5;stroke-dasharray:5,5;"/></g><g><title></title><rect x="603.528" y="220.234" width="10" height="30.352" fill="#FFF" style="stroke:#181818;stroke-width:1;"/></g><g><title></title><rect x="603.528" y="341.641" width="10" height="480.57" fill="#FFF" style="stroke:#181818;stroke-width:1;"/></g><g><title>Droplet</title><rect x="803.204" y="98.828" width="8" height="1014.195" fill="#000" fill-opacity="0"/><line x1="806.704" y1="98.828" x2="806.704" y2="1113.023" style="stroke:#181818;stroke-width:0.5;stroke-dasharray:5,5;"/></g><g><title>Enemy</title><rect x="956.285" y="98.828" width="8" height="1014.195" fill="#000" fill-opacity="0"/><line x1="959.785" y1="98.828" x2="959.785" y2="1113.023" style="stroke:#181818;stroke-width:0.5;stroke-dasharray:5,5;"/></g><g><title></title><rect x="954.785" y="557.75" width="10" height="60.703" fill="#FFF" style="stroke:#181818;stroke-width:1;"/></g><g><title>World</title><rect x="1136.349" y="98.828" width="8" height="1014.195" fill="#000" fill-opacity="0"/><line x1="1139.849" y1="98.828" x2="1139.849" y2="1113.023" style="stroke:#181818;stroke-width:0.5;stroke-dasharray:5,5;"/></g><g><title>Progress</title><rect x="1244.174" y="98.828" width="8" height="1014.195" fill="#000" fill-opacity="0"/><line x1="1247.674" y1="98.828" x2="1247.674" y2="1113.023" style="stroke:#181818;stroke-width:0.5;stroke-dasharray:5,5;"/></g><g><title>Game</title><rect x="1315.247" y="98.828" width="8" height="1014.195" fill="#000" fill-opacity="0"/><line x1="1318.747" y1="98.828" x2="1318.747" y2="1113.023" style="stroke:#181818;stroke-width:0.5;stroke-dasharray:5,5;"/></g><rect x="10" y="48.609" width="113.982" height="49.219" fill="#E2E2F0" style="stroke:#181818;stroke-width:0.5;" rx="2.5" ry="2.5"/><text x="49.105" y="70.143" fill="#000" font-size="14" textLength="35.772">Timer</text><text x="17" y="87.752" fill="#000" font-size="14" textLength="99.982">(Swing, ~60 Hz)</text><rect x="147.406" y="66.219" width="87.931" height="31.609" fill="#E2E2F0" style="stroke:#181818;stroke-width:0.5;" rx="2.5" ry="2.5"/><text x="154.406" y="87.752" fill="#000" font-size="14" textLength="73.931">GamePanel</text><rect x="421.636" y="66.219" width="66.131" height="31.609" fill="#E2E2F0" style="stroke:#181818;stroke-width:0.5;" rx="2.5" ry="2.5"/><text x="428.636" y="87.752" fill="#000" font-size="14" textLength="52.131">Controls</text><rect x="497.767" y="66.219" width="75.482" height="31.609" fill="#E2E2F0" style="stroke:#181818;stroke-width:0.5;" rx="2.5" ry="2.5"/><text x="504.767" y="87.752" fill="#000" font-size="14" textLength="61.482">Gamepad</text><rect x="583.249" y="66.219" width="50.559" height="31.609" fill="#E2E2F0" style="stroke:#181818;stroke-width:0.5;" rx="2.5" ry="2.5"/><text x="590.249" y="87.752" fill="#000" font-size="14" textLength="36.559">World</text><rect x="777.138" y="66.219" width="59.131" height="31.609" fill="#E2E2F0" style="stroke:#181818;stroke-width:0.5;" rx="2.5" ry="2.5"/><text x="784.138" y="87.752" fill="#000" font-size="14" textLength="45.131">Droplet</text><rect x="886.565" y="48.609" width="146.439" height="49.219" fill="#E2E2F0" style="stroke:#181818;stroke-width:0.5;" rx="2.5" ry="2.5"/><text x="937.999" y="70.143" fill="#000" font-size="14" textLength="43.572">Enemy</text><text x="893.565" y="87.752" fill="#000" font-size="14" textLength="132.439">(Bouncer, Speeder…)</text><rect x="1077.033" y="48.609" width="125.631" height="49.219" fill="#E2E2F0" style="stroke:#181818;stroke-width:0.5;" rx="2.5" ry="2.5"/><text x="1121.569" y="70.143" fill="#000" font-size="14" textLength="36.559">World</text><text x="1084.033" y="87.752" fill="#000" font-size="14" textLength="111.631">(en tant qu'Arena)</text><rect x="1212.664" y="66.219" width="70.021" height="31.609" fill="#E2E2F0" style="stroke:#181818;stroke-width:0.5;" rx="2.5" ry="2.5"/><text x="1219.664" y="87.752" fill="#000" font-size="14" textLength="56.021">Progress</text><rect x="1292.685" y="66.219" width="52.124" height="31.609" fill="#E2E2F0" style="stroke:#181818;stroke-width:0.5;" rx="2.5" ry="2.5"/><text x="1299.685" y="87.752" fill="#000" font-size="14" textLength="38.124">Game</text><rect x="10" y="1113.023" width="113.982" height="49.219" fill="#E2E2F0" style="stroke:#181818;stroke-width:0.5;" rx="2.5" ry="2.5"/><text x="49.105" y="1134.557" fill="#000" font-size="14" textLength="35.772">Timer</text><text x="17" y="1152.166" fill="#000" font-size="14" textLength="99.982">(Swing, ~60 Hz)</text><rect x="147.406" y="1113.023" width="87.931" height="31.609" fill="#E2E2F0" style="stroke:#181818;stroke-width:0.5;" rx="2.5" ry="2.5"/><text x="154.406" y="1134.557" fill="#000" font-size="14" textLength="73.931">GamePanel</text><rect x="421.636" y="1113.023" width="66.131" height="31.609" fill="#E2E2F0" style="stroke:#181818;stroke-width:0.5;" rx="2.5" ry="2.5"/><text x="428.636" y="1134.557" fill="#000" font-size="14" textLength="52.131">Controls</text><rect x="497.767" y="1113.023" width="75.482" height="31.609" fill="#E2E2F0" style="stroke:#181818;stroke-width:0.5;" rx="2.5" ry="2.5"/><text x="504.767" y="1134.557" fill="#000" font-size="14" textLength="61.482">Gamepad</text><rect x="583.249" y="1113.023" width="50.559" height="31.609" fill="#E2E2F0" style="stroke:#181818;stroke-width:0.5;" rx="2.5" ry="2.5"/><text x="590.249" y="1134.557" fill="#000" font-size="14" textLength="36.559">World</text><rect x="777.138" y="1113.023" width="59.131" height="31.609" fill="#E2E2F0" style="stroke:#181818;stroke-width:0.5;" rx="2.5" ry="2.5"/><text x="784.138" y="1134.557" fill="#000" font-size="14" textLength="45.131">Droplet</text><rect x="886.565" y="1113.023" width="146.439" height="49.219" fill="#E2E2F0" style="stroke:#181818;stroke-width:0.5;" rx="2.5" ry="2.5"/><text x="937.999" y="1134.557" fill="#000" font-size="14" textLength="43.572">Enemy</text><text x="893.565" y="1152.166" fill="#000" font-size="14" textLength="132.439">(Bouncer, Speeder…)</text><rect x="1077.033" y="1113.023" width="125.631" height="49.219" fill="#E2E2F0" style="stroke:#181818;stroke-width:0.5;" rx="2.5" ry="2.5"/><text x="1121.569" y="1134.557" fill="#000" font-size="14" textLength="36.559">World</text><text x="1084.033" y="1152.166" fill="#000" font-size="14" textLength="111.631">(en tant qu'Arena)</text><rect x="1212.664" y="1113.023" width="70.021" height="31.609" fill="#E2E2F0" style="stroke:#181818;stroke-width:0.5;" rx="2.5" ry="2.5"/><text x="1219.664" y="1134.557" fill="#000" font-size="14" textLength="56.021">Progress</text><rect x="1292.685" y="1113.023" width="52.124" height="31.609" fill="#E2E2F0" style="stroke:#181818;stroke-width:0.5;" rx="2.5" ry="2.5"/><text x="1299.685" y="1134.557" fill="#000" font-size="14" textLength="38.124">Game</text><polygon points="174.371,125.18,184.371,129.18,174.371,133.18,178.371,129.18" fill="#181818" style="stroke:#181818;stroke-width:1;stroke-linejoin:miter;stroke-miterlimit:10;"/><line x1="66.991" y1="129.18" x2="180.371" y2="129.18" style="stroke:#181818;stroke-width:1;"/><text x="73.991" y="124.323" fill="#000" font-size="13" textLength="95.38">actionPerformed</text><polygon points="442.701,155.531,452.701,159.531,442.701,163.531,446.701,159.531" fill="#181818" style="stroke:#181818;stroke-width:1;stroke-linejoin:miter;stroke-miterlimit:10;"/><line x1="196.371" y1="159.531" x2="448.701" y2="159.531" style="stroke:#181818;stroke-width:1;"/><text x="203.371" y="154.675" fill="#000" font-size="13" textLength="218.848">isPressed(UP, DOWN, LEFT, RIGHT)</text><polygon points="523.508,185.883,533.508,189.883,523.508,193.883,527.508,189.883" fill="#181818" style="stroke:#181818;stroke-width:1;stroke-linejoin:miter;stroke-miterlimit:10;"/><line x1="196.371" y1="189.883" x2="529.508" y2="189.883" style="stroke:#181818;stroke-width:1;"/><text x="203.371" y="185.026" fill="#000" font-size="13" textLength="140.156">directionX(), directionY()</text><polygon points="591.528,216.234,601.528,220.234,591.528,224.234,595.528,220.234" fill="#181818" style="stroke:#181818;stroke-width:1;stroke-linejoin:miter;stroke-miterlimit:10;"/><line x1="196.371" y1="220.234" x2="597.528" y2="220.234" style="stroke:#181818;stroke-width:1;"/><text x="203.371" y="215.378" fill="#000" font-size="13" textLength="227.652">holdDash(touche du dash maintenue ?)</text><polygon points="794.704,246.586,804.704,250.586,794.704,254.586,798.704,250.586" fill="#181818" style="stroke:#181818;stroke-width:1;stroke-linejoin:miter;stroke-miterlimit:10;"/><line x1="613.528" y1="250.586" x2="800.704" y2="250.586" style="stroke:#181818;stroke-width:1;"/><text x="620.528" y="245.729" fill="#000" font-size="13" textLength="121.386">anchor() ou release()</text><polygon points="523.508,276.938,533.508,280.938,523.508,284.938,527.508,280.938" fill="#181818" style="stroke:#181818;stroke-width:1;stroke-linejoin:miter;stroke-miterlimit:10;"/><line x1="196.371" y1="280.938" x2="529.508" y2="280.938" style="stroke:#181818;stroke-width:1;"/><text x="203.371" y="276.081" fill="#000" font-size="13" textLength="83.776">aimX(), aimY()</text><polygon points="596.528,307.289,606.528,311.289,596.528,315.289,600.528,311.289" fill="#181818" style="stroke:#181818;stroke-width:1;stroke-linejoin:miter;stroke-miterlimit:10;"/><line x1="196.371" y1="311.289" x2="602.528" y2="311.289" style="stroke:#181818;stroke-width:1;"/><text x="203.371" y="306.433" fill="#000" font-size="13" textLength="244.258">holdShot(touche de tir maintenue ?, visée)</text><polygon points="591.528,337.641,601.528,341.641,591.528,345.641,595.528,341.641" fill="#181818" style="stroke:#181818;stroke-width:1;stroke-linejoin:miter;stroke-miterlimit:10;"/><line x1="196.371" y1="341.641" x2="597.528" y2="341.641" style="stroke:#181818;stroke-width:1;"/><text x="203.371" y="336.784" fill="#000" font-size="13" textLength="101.169">update(dt, dx, dy)</text><path d="M592.528,353.641 L664.963,353.641 L664.963,361.992 L654.963,371.992 L592.528,371.992 L592.528,353.641" style="stroke:#000;stroke-width:1.5;" fill="#EEE"/><rect x="592.528" y="353.641" width="230.175" height="58.703" fill="none" style="stroke:#000;stroke-width:1.5;"/><text x="607.528" y="368.136" fill="#000" font-size="13" textLength="27.435" font-weight="700">loop</text><text x="679.963" y="367.06" fill="#000" font-size="11" textLength="82.495" font-weight="700">[chaque goutte]</text><polygon points="794.704,400.344,804.704,404.344,794.704,408.344,798.704,404.344" fill="#181818" style="stroke:#181818;stroke-width:1;stroke-linejoin:miter;stroke-miterlimit:10;"/><line x1="613.528" y1="404.344" x2="800.704" y2="404.344" style="stroke:#181818;stroke-width:1;"/><text x="620.528" y="399.487" fill="#000" font-size="13" textLength="115.635">update(dt, poussée)</text><path d="M592.528,430.344 L657.739,430.344 L657.739,438.695 L647.739,448.695 L592.528,448.695 L592.528,430.344" style="stroke:#000;stroke-width:1.5;" fill="#EEE"/><rect x="592.528" y="430.344" width="285.037" height="58.703" fill="none" style="stroke:#000;stroke-width:1.5;"/><text x="607.528" y="444.839" fill="#000" font-size="13" textLength="20.211" font-weight="700">opt</text><text x="672.739" y="443.763" fill="#000" font-size="11" textLength="188.826" font-weight="700">[la goutte du joueur est trop tendue]</text><polygon points="794.704,477.047,804.704,481.047,794.704,485.047,798.704,481.047" fill="#181818" style="stroke:#181818;stroke-width:1;stroke-linejoin:miter;stroke-miterlimit:10;"/><line x1="613.528" y1="481.047" x2="800.704" y2="481.047" style="stroke:#181818;stroke-width:1;"/><text x="620.528" y="476.19" fill="#000" font-size="13" textLength="114.874">tear() : deux moitiés</text><path d="M592.528,507.047 L664.963,507.047 L664.963,515.398 L654.963,525.398 L592.528,525.398 L592.528,507.047" style="stroke:#000;stroke-width:1.5;" fill="#EEE"/><rect x="592.528" y="507.047" width="563.32" height="132.406" fill="none" style="stroke:#000;stroke-width:1.5;"/><text x="607.528" y="521.542" fill="#000" font-size="13" textLength="27.435" font-weight="700">loop</text><text x="679.963" y="520.466" fill="#000" font-size="11" textLength="180.297" font-weight="700">[chaque ennemi proche du joueur]</text><polygon points="942.785,553.75,952.785,557.75,942.785,561.75,946.785,557.75" fill="#181818" style="stroke:#181818;stroke-width:1;stroke-linejoin:miter;stroke-miterlimit:10;"/><line x1="613.528" y1="557.75" x2="948.785" y2="557.75" style="stroke:#181818;stroke-width:1;"/><text x="620.528" y="552.894" fill="#000" font-size="13" textLength="86.715">update(dt, this)</text><polygon points="1127.849,584.102,1137.849,588.102,1127.849,592.102,1131.849,588.102" fill="#181818" style="stroke:#181818;stroke-width:1;stroke-linejoin:miter;stroke-miterlimit:10;"/><line x1="964.785" y1="588.102" x2="1133.849" y2="588.102" style="stroke:#181818;stroke-width:1;"/><text x="971.785" y="583.245" fill="#000" font-size="13" textLength="156.063">obstaclesNear(x, y, portée)</text><line x1="964.785" y1="618.453" x2="1006.785" y2="618.453" style="stroke:#181818;stroke-width:1;"/><line x1="1006.785" y1="618.453" x2="1006.785" y2="631.453" style="stroke:#181818;stroke-width:1;"/><line x1="959.785" y1="631.453" x2="1006.785" y2="631.453" style="stroke:#181818;stroke-width:1;"/><polygon points="969.785,627.453,959.785,631.453,969.785,635.453,965.785,631.453" fill="#181818" style="stroke:#181818;stroke-width:1;stroke-linejoin:miter;stroke-miterlimit:10;"/><text x="971.785" y="613.597" fill="#000" font-size="13" textLength="118.498">move() puis rebonds</text><line x1="613.528" y1="692.156" x2="655.528" y2="692.156" style="stroke:#181818;stroke-width:1;"/><line x1="655.528" y1="692.156" x2="655.528" y2="705.156" style="stroke:#181818;stroke-width:1;"/><line x1="614.528" y1="705.156" x2="655.528" y2="705.156" style="stroke:#181818;stroke-width:1;"/><polygon points="624.528,701.156,614.528,705.156,624.528,709.156,620.528,705.156" fill="#181818" style="stroke:#181818;stroke-width:1;stroke-linejoin:miter;stroke-miterlimit:10;"/><text x="620.528" y="670.948" fill="#000" font-size="13" textLength="89.597">touchDangers()</text><text x="620.528" y="687.3" fill="#000" font-size="13" textLength="179.175">murs, ennemis, portes fermées</text><line x1="613.528" y1="735.508" x2="655.528" y2="735.508" style="stroke:#181818;stroke-width:1;"/><line x1="655.528" y1="735.508" x2="655.528" y2="748.508" style="stroke:#181818;stroke-width:1;"/><line x1="614.528" y1="748.508" x2="655.528" y2="748.508" style="stroke:#181818;stroke-width:1;"/><polygon points="624.528,744.508,614.528,748.508,624.528,752.508,620.528,748.508" fill="#181818" style="stroke:#181818;stroke-width:1;stroke-linejoin:miter;stroke-miterlimit:10;"/><text x="620.528" y="730.651" fill="#000" font-size="13" textLength="145.247">fragmentations et fusions</text><line x1="613.528" y1="778.859" x2="655.528" y2="778.859" style="stroke:#181818;stroke-width:1;"/><line x1="655.528" y1="778.859" x2="655.528" y2="791.859" style="stroke:#181818;stroke-width:1;"/><line x1="614.528" y1="791.859" x2="655.528" y2="791.859" style="stroke:#181818;stroke-width:1;"/><polygon points="624.528,787.859,614.528,791.859,624.528,795.859,620.528,791.859" fill="#181818" style="stroke:#181818;stroke-width:1;stroke-linejoin:miter;stroke-miterlimit:10;"/><text x="620.528" y="774.003" fill="#000" font-size="13" textLength="100.458">boutons et portes</text><polygon points="1235.674,818.211,1245.674,822.211,1235.674,826.211,1239.674,822.211" fill="#181818" style="stroke:#181818;stroke-width:1;stroke-linejoin:miter;stroke-miterlimit:10;"/><line x1="613.528" y1="822.211" x2="1241.674" y2="822.211" style="stroke:#181818;stroke-width:1;"/><text x="620.528" y="817.354" fill="#000" font-size="13" textLength="188.602">touchCheckpoint() / obtainLight()</text><polygon points="1235.674,848.563,1245.674,852.563,1235.674,856.563,1239.674,852.563" fill="#181818" style="stroke:#181818;stroke-width:1;stroke-linejoin:miter;stroke-miterlimit:10;"/><line x1="196.371" y1="852.563" x2="1241.674" y2="852.563" style="stroke:#181818;stroke-width:1;"/><text x="203.371" y="847.706" fill="#000" font-size="13" textLength="85.998">takeChanged()</text><path d="M175.371,864.563 L235.542,864.563 L235.542,872.914 L225.542,882.914 L175.371,882.914 L175.371,864.563" style="stroke:#000;stroke-width:1.5;" fill="#EEE"/><rect x="175.371" y="864.563" width="1159.375" height="58.703" fill="none" style="stroke:#000;stroke-width:1.5;"/><text x="190.371" y="879.058" fill="#000" font-size="13" textLength="15.171" font-weight="700">alt</text><text x="250.542" y="877.981" fill="#000" font-size="11" textLength="133.864" font-weight="700">[la progression a changé]</text><polygon points="1306.747,911.266,1316.747,915.266,1306.747,919.266,1310.747,915.266" fill="#181818" style="stroke:#181818;stroke-width:1;stroke-linejoin:miter;stroke-miterlimit:10;"/><line x1="196.371" y1="915.266" x2="1312.747" y2="915.266" style="stroke:#181818;stroke-width:1;"/><text x="203.371" y="910.409" fill="#000" font-size="13" textLength="172.675">saveProgress(level, progress)</text><path d="M175.371,941.266 L235.542,941.266 L235.542,949.617 L225.542,959.617 L175.371,959.617 L175.371,941.266" style="stroke:#000;stroke-width:1.5;" fill="#EEE"/><rect x="175.371" y="941.266" width="237.265" height="88.055" fill="none" style="stroke:#000;stroke-width:1.5;"/><text x="190.371" y="955.761" fill="#000" font-size="13" textLength="15.171" font-weight="700">alt</text><text x="250.542" y="954.685" fill="#000" font-size="11" textLength="146.094" font-weight="700">[mort ou lumière récupérée]</text><line x1="196.371" y1="1008.32" x2="238.371" y2="1008.32" style="stroke:#181818;stroke-width:1;"/><line x1="238.371" y1="1008.32" x2="238.371" y2="1021.32" style="stroke:#181818;stroke-width:1;"/><line x1="197.371" y1="1021.32" x2="238.371" y2="1021.32" style="stroke:#181818;stroke-width:1;"/><polygon points="207.371,1017.32,197.371,1021.32,207.371,1025.32,203.371,1021.32" fill="#181818" style="stroke:#181818;stroke-width:1;stroke-linejoin:miter;stroke-miterlimit:10;"/><text x="203.371" y="987.112" fill="#000" font-size="13" textLength="135.123">load() : nouveau World,</text><text x="203.371" y="1003.464" fill="#000" font-size="13" textLength="91.749">même Progress</text><line x1="196.371" y1="1082.023" x2="238.371" y2="1082.023" style="stroke:#181818;stroke-width:1;"/><line x1="238.371" y1="1082.023" x2="238.371" y2="1095.023" style="stroke:#181818;stroke-width:1;"/><line x1="191.371" y1="1095.023" x2="238.371" y2="1095.023" style="stroke:#181818;stroke-width:1;"/><polygon points="201.371,1091.023,191.371,1095.023,201.371,1099.023,197.371,1095.023" fill="#181818" style="stroke:#181818;stroke-width:1;stroke-linejoin:miter;stroke-miterlimit:10;"/><text x="203.371" y="1060.815" fill="#000" font-size="13" textLength="48.407">repaint()</text><text x="203.371" y="1077.167" fill="#000" font-size="13" textLength="157.485">World.draw(), HUD, pop-up</text><?plantuml-src XLJBRjD05DtxAwwwmPPSOCM21QWqfKLgIqGJ5QHkffuRU-XuPZgFj6M1-1f4-8ty2L_2dN5URXg85DaUttFkEVTXToEKOPQru1h6zPrGDKoOT9YvzHky3QWgF4FdM8q7KjGA94vyveMN26E585fw0pp0LmoG7xCMuLHh0-XXR3Zp26Ve6ysBB2DIBofXcFAmDn8jsYkLNyJC9Nn_zH9ElXLxm1oaLxteI3ja2cNlz50hRxLqMw66yTxPfRQoVpAmsaZqVKb72ji7alHE1p9jIxWmY1pjdny_Es4fe8z9r8H11JuUt8Pd1nOLwm3fjWSOMbrRAkUMvYnBjc7_pTejl0PMUQ7L4Er4snPv5f-diQhhagp32Rki2K656yPCoFFni8J1nylp4awFtezA-FJX-6HKz86BkX6E2uifw-UyADTFN_97Y6ITuXij-O2v9lSwL4sQ1KwFq3AXFAg0yBPOw-vwqM69PD68w5HLZRPv0Jg0HOdC8MNa-0YvGpGJRP9BrtyAlMYqNmb5yC9kwYnXAjnyXZi8GXhed7igoptz7xPyoJZwLSDeRw3MmNlCW7vFsDtWCZguBYigdcdZGR85EYsM3XWieFD0hJL0MddOoUkHnI9I6p7SGwk55_EPIyoRub3HB0imLYzQrcNfiwPvxslrZN15YbevxxOY7dNn14npJq1zxJoh9Bhpg8fAzX3TMf_CzX3BLAsUKjl11E5e2gwruYu5Rin1boyQMWbTDYWrTi1KZTRbnPLgWtNbmglhKgE32TgM5BXj_CIokaNbMHnu5xzXa-3YxNReDVLd4TFHhaEMExuKTDXWTMCqJHavUq55yJHnfw9k_7y7V9EAtU1X4xrnWZ6PfiGitfD6OB6tgfxFKi6szeGe79lYaZ6NE4LPhXYwuOkqBTc9IoX3A-Q_B8ATpwfWvZEwujFSow-Lr8oduLCwJ965pb99ZPZ_9WMhZrzCjPF4qagdMbsf17_EBRkBktqo7iGUclrWDiksmlu5?></g></svg>